<?xml version="1.0" standalone="no"?>
<!DOCTYPE svg PUBLIC "-//W3C//DTD SVG 20010904//EN"
 "http://www.w3.org/TR/2001/REC-SVG-20010904/DTD/svg10.dtd">
<svg version="1.0" xmlns="http://www.w3.org/2000/svg"
 width="2000.000000pt" height="1500.000000pt" viewBox="0 0 2000.000000 1500.000000"
 preserveAspectRatio="xMidYMid meet">

<g transform="translate(0.000000,1500.000000) scale(0.100000,-0.100000)"
fill="#000000" stroke="none">
<path d="M8370 9153 c-19 -10 -43 -34 -55 -53 -20 -35 -20 -44 -20 -1595 0
-1549 0 -1560 20 -1595 29 -49 84 -75 128 -61 40 13 71 44 86 84 8 20 11 504
11 1575 0 1453 -1 1549 -18 1581 -33 66 -96 92 -152 64z"/>
<path d="M10295 8880 c-255 -29 -467 -106 -631 -228 -298 -221 -445 -562 -461
-1067 -24 -771 244 -1239 802 -1401 151 -43 266 -57 480 -58 215 0 320 13 485
61 344 99 594 340 680 655 19 73 40 214 40 275 l0 33 -280 0 -280 0 0 -38 c0
-58 -36 -189 -67 -241 -64 -109 -172 -193 -307 -238 -75 -25 -94 -27 -251 -28
-132 0 -184 4 -235 18 -185 50 -315 155 -394 318 -82 171 -100 288 -94 616 5
217 7 247 31 337 93 348 316 516 684 516 59 0 140 -7 178 -15 146 -31 292
-130 362 -247 36 -60 73 -188 73 -255 l0 -43 291 0 292 0 -7 86 c-33 433 -270
737 -678 872 -68 22 -166 48 -218 57 -114 19 -384 27 -495 15z"/>
<path d="M3014 8816 l-34 -34 2 -1181 3 -1181 -235 -2 -235 -3 -3 -55 c-5 -88
6 -140 38 -172 l28 -28 2497 0 2497 0 34 34 c34 34 34 34 34 130 l0 96 -235 0
-235 0 0 1184 0 1185 -24 28 -24 28 -2037 3 -2037 2 -34 -34z m2094 -58 c2
-19 -2 -28 -18 -33 -24 -8 -50 10 -50 35 0 24 10 31 40 28 19 -2 26 -10 28
-30z m1892 -1138 l0 -1040 -1925 0 -1925 0 0 1040 0 1040 1925 0 1925 0 0
-1040z m-1659 -1300 c21 -12 25 -40 7 -58 -9 -9 -81 -12 -264 -12 -139 0 -259
3 -268 6 -19 7 -21 45 -4 62 16 16 500 17 529 2z"/>
<path d="M5151 8073 c-11 -38 -78 -266 -150 -508 -71 -242 -133 -452 -136
-467 l-7 -28 75 0 c63 0 76 3 81 18 3 9 73 247 155 528 83 282 151 515 151
518 0 3 -34 6 -75 6 l-74 0 -20 -67z"/>
<path d="M4388 7747 l-348 -161 0 -67 0 -66 348 -161 c192 -89 352 -162 355
-162 4 0 7 34 7 76 l0 75 -82 38 c-46 21 -165 73 -265 117 -101 43 -183 81
-183 84 0 3 120 57 265 120 l265 115 0 77 c0 43 -3 78 -7 78 -5 -1 -164 -74
-355 -163z"/>
<path d="M5410 7833 l0 -80 265 -113 c146 -62 265 -116 265 -120 0 -4 -119
-59 -265 -121 l-265 -114 0 -77 c0 -43 2 -78 5 -78 2 0 161 72 352 159 l348
160 3 69 3 69 -343 157 c-189 87 -349 160 -355 163 -10 4 -13 -15 -13 -74z"/>
<path d="M12120 7505 l0 -1335 280 0 280 0 0 565 0 565 583 -2 582 -3 3 -562
2 -563 280 0 280 0 0 1335 0 1335 -280 0 -280 0 0 -530 0 -530 -585 0 -585 0
0 530 0 530 -280 0 -280 0 0 -1335z"/>
<path d="M15210 7519 c-283 -726 -516 -1326 -518 -1334 -3 -13 36 -15 285 -15
l288 0 95 255 94 255 611 0 612 0 94 -252 94 -253 308 -3 307 -2 -13 32 c-7
18 -242 619 -522 1336 l-509 1302 -355 0 -356 -1 -515 -1320z m933 619 c38
-122 133 -394 212 -605 l142 -383 -433 0 -433 0 28 78 c198 531 270 731 327
915 37 119 72 217 78 217 6 0 42 -100 79 -222z"/>
</g>
</svg>
